<svg class="icon" viewBox="0 0 1316 1024" version="1.1" xmlns="http://www.w3.org/2000/svg" id="mx_n_1568617374414" width="329" height="256"><defs><style/></defs><path d="M1097.143 292.571V731.43H146.286V292.57h950.857zm73.143 329.143h73.143V402.286h-73.143V237.714q0-8-5.143-13.143T1152 219.43H91.429q-8 0-13.143 5.142t-5.143 13.143v548.572q0 8 5.143 13.143t13.143 5.142H1152q8 0 13.143-5.142t5.143-13.143V621.714zm146.285-219.428v219.428q0 30.286-21.428 51.715t-51.714 21.428v91.429q0 37.714-26.858 64.571T1152 877.714H91.429q-37.715 0-64.572-26.857T0 786.286V237.714Q0 200 26.857 173.143t64.572-26.857H1152q37.714 0 64.571 26.857t26.858 64.571v91.429q30.285 0 51.714 21.428t21.428 51.715z"/></svg>