<svg class="icon" viewBox="0 0 1024 1024" xmlns="http://www.w3.org/2000/svg" width="128" height="128"><path d="M639.078 570.163c-28.979-14.54-65.433-21.811-101.683-21.811H326.758C145.306 548.25 0 700.826 0 889.652v21.81c0 72.602 145.306 79.872 326.758 79.872h268.698c-50.893-50.892-79.872-116.224-79.872-188.825 7.373-101.683 50.893-181.555 123.494-232.346zM435.814 512c137.933 0 254.157-116.122 254.157-254.157C689.87 112.64 573.747 3.686 435.814 3.686c-138.035 0-254.156 116.122-254.156 254.055C181.555 395.776 297.779 512 435.814 512zm363.11 43.52c-123.391 0-225.074 101.683-225.074 232.346s101.683 232.448 225.075 232.448c123.392 0 225.075-101.684 225.075-232.448S922.317 555.52 798.925 555.52zm116.122 261.427H682.598c-14.54 0-28.979-14.54-28.979-28.979 0-14.54 14.541-28.98 28.98-28.98h232.447c14.541 0 28.98 14.542 28.98 28.98.102 14.54-14.439 28.98-28.98 28.98zm0 0"/></svg>