<svg t="1579232111566" class="icon" viewBox="0 0 1024 1024" version="1.1" xmlns="http://www.w3.org/2000/svg" p-id="5315" width="200" height="200"><path d="M 883.8 521.2 c -15.2 -57.4 -41.4 -116 -119 -122.2 c 3.5 -12.7 6.3 -25.4 8 -38 c 12 -86.7 -6.4 -160.8 -53.1 -214.4 C 672.6 92.5 600.8 64 512 64 c -88.4 0 -160.1 28.4 -207.1 82.1 c -46.9 53.5 -65.5 127.7 -53.8 214.7 c 1.8 13.4 4.8 26.8 8.5 40.3 c -58.7 11 -104.2 56 -119.6 120.5 L 64 820.1 v 5.6 c 0 74 60.3 134.3 134.4 134.3 h 627.2 c 74.1 0 134.4 -60.2 134.4 -134.3 v -5.6 l -76.2 -298.9 Z M 372.4 205 c 29.5 -33.7 77.8 -51.5 139.6 -51.5 c 62.1 0 110.6 17.9 140.2 51.9 c 29.2 33.5 40.3 83.1 31.9 143.4 C 669.7 453.1 564.8 573 511.9 627.6 C 459 573 353.8 453.1 339.9 348.9 c -8.1 -60.6 3.1 -110.4 32.5 -143.9 Z m 453.2 665.5 H 198.4 c -23.1 0 -42.2 -17.6 -44.6 -40.1 L 227.1 543 c 8.3 -35 30.5 -55.1 60.9 -55.1 h 7.1 c 66.1 124.8 180.3 229.9 186.7 235.7 l 30.2 27.5 l 30.2 -27.6 c 6.4 -5.8 120.2 -110.9 186.3 -235.6 h 22.4 c 19.6 0 31.5 0 46.2 55.8 l 73 286.7 c -2.3 22.5 -21.4 40.1 -44.5 40.1 Z" fill="" p-id="5316"></path><path d="M 512.1 459.5 c 74.2 0 134.6 -60.3 134.6 -134.4 s -60.4 -134.4 -134.6 -134.4 S 377.5 250.9 377.5 325 s 60.4 134.5 134.6 134.5 Z m 0 -179.4 c 24.8 0 45 20.2 45 44.9 s -20.2 44.9 -45 44.9 s -45 -20.2 -45 -44.9 s 20.2 -44.9 45 -44.9 Z" fill="" p-id="5317"></path></svg>