<svg class="icon" viewBox="0 0 1024 1024" xmlns="http://www.w3.org/2000/svg" width="128" height="128"><defs><style/></defs><path d="M504.576 603.429a19.749 19.749 0 01-5.705 13.129L309.175 806.254l82.286 82.285a36.425 36.425 0 0110.861 25.71c0 20.005-16.567 36.572-36.571 36.572h-256c-20.005 0-36.572-16.567-36.572-36.572v-256c0-20.004 16.567-36.571 36.572-36.571a36.206 36.206 0 0125.71 10.861l82.285 82.286L407.442 525.13c3.438-3.438 8.558-5.705 13.13-5.705s9.727 2.304 13.129 5.705l65.133 65.134a19.602 19.602 0 015.705 13.129zm446.281-493.715v256c0 20.005-16.567 36.572-36.571 36.572a36.206 36.206 0 01-25.71-10.862l-82.286-82.286-189.696 189.696c-3.437 3.438-8.557 5.705-13.129 5.705s-9.728-2.304-13.129-5.705l-65.134-65.133c-3.437-3.438-5.705-8.558-5.705-13.13s2.304-9.728 5.705-13.129l189.696-189.696-82.285-82.285a36.425 36.425 0 01-10.862-25.71c0-20.005 16.567-36.572 36.571-36.572h256c20.005 0 36.572 16.567 36.572 36.572z"/></svg>