<svg class="icon" viewBox="0 0 1024 1024" xmlns="http://www.w3.org/2000/svg" width="128" height="128"><defs><style/></defs><path d="M867.656 195.962L699.888 28.194C681.892 10.198 657.497 0 632.102 0h-408.12C170.991.2 128 43.192 128 96.181V928.02c0 52.99 42.992 95.981 95.981 95.981H799.87c52.99 0 95.981-42.992 95.981-95.981V263.95c0-25.396-10.198-49.99-28.194-67.987zM792.07 256.15H639.9V103.98l152.17 152.17zM223.981 928.019V96.18H543.92v207.96c0 26.594 21.396 47.99 47.99 47.99h207.96v575.89H223.98zm423.917-479.907H590.31c-8.799 0-16.797 4.8-20.996 12.598-35.993 66.187-44.392 84.783-57.189 115.377-27.795-58.188-13.797-34.593-57.189-115.377-4.199-7.798-12.397-12.598-21.196-12.598h-57.788c-18.597 0-29.995 19.997-20.796 35.993l92.582 155.97-92.582 155.97c-9.399 15.996 2.2 35.992 20.796 35.992h57.788c8.799 0 16.797-4.799 20.996-12.597 43.392-79.984 45.991-89.982 57.189-115.378 29.794 60.389 11.798 31.794 57.189 115.378 4.199 7.798 12.397 12.597 21.196 12.597h57.588c18.597 0 29.995-19.996 20.796-35.992l-92.781-155.97c1.4-2.2 60.588-100.98 92.581-155.97 9.399-15.996-2.2-35.993-20.596-35.993z"/></svg>