<svg class="icon" viewBox="0 0 1142 1024" xmlns="http://www.w3.org/2000/svg" width="128" height="128"><path d="M891.392 992.65C803.762 1019.274 663.631 1024 512 1024 220.396 1024 0 989.38 0 905.846c0-158.68 152.182-298.378 370.924-341.07A295.424 295.424 0 01492.308 0a295.385 295.385 0 01128.236 561.546c34.462 6.538 67.702 16.03 99.131 28.12a151.355 151.355 0 00-50.137 112.72c0 147.573 141.824 234.456 221.854 290.264zm-31.114-401.88c34.265 0 64.433 16.147 84.953 40.762 20.52-24.576 50.727-40.763 84.913-40.763 61.637 0 112.01 50.767 112.01 113.231 0 128.158-142.651 195.348-190.78 235.914l-6.143 5.317-6.144-5.317C890.88 899.308 748.307 832.158 748.307 704c0-62.425 50.374-113.23 112.01-113.23z"/></svg>