<svg class="icon" viewBox="0 0 1024 1024" xmlns="http://www.w3.org/2000/svg" width="200" height="200"><path d="M928 1024H96a32 32 0 01-32-32V32A32 32 0 0196 0h832a32 32 0 0132 32v960a32 32 0 01-32 32zm-800-64h768V64H128z"/><path d="M736 256H608a32 32 0 010-64h128a32 32 0 010 64zm0 192H608a32 32 0 010-64h128a32 32 0 010 64zm0 192H288a32 32 0 010-64h448a32 32 0 010 64zm0 192H288a32 32 0 010-64h448a32 32 0 010 64zM480 448H288a32 32 0 01-32-32V224a32 32 0 0132-32h192a32 32 0 0132 32v192a32 32 0 01-32 32zm-160-64h128V256H320z"/></svg>