<svg t="1603185517007" class="icon" viewBox="0 0 1024 1024" version="1.1" xmlns="http://www.w3.org/2000/svg" p-id="10068" width="200" height="200"><path d="M423.131429 146.285714L506.148571 229.449143H863.085714c22.966857 0 41.545143 18.578286 41.545143 41.545143v152.210285a345.965714 345.965714 0 0 0-83.090286-40.228571v-70.436571H471.771429L388.681143 229.376H156.598857v581.778286h223.158857c8.704 29.549714 21.211429 57.490286 36.937143 83.163428H115.053714a41.545143 41.545143 0 0 1-41.545143-41.618285V187.830857c0-22.966857 18.578286-41.545143 41.545143-41.545143h308.077715z" p-id="10069"></path><path d="M713.142857 438.857143a274.285714 274.285714 0 1 1 0 548.571428 274.285714 274.285714 0 0 1 0-548.571428z m12.507429 73.142857h-32.182857a13.531429 13.531429 0 0 0-13.531429 13.531429v154.331428h-154.331429A13.531429 13.531429 0 0 0 512 693.540571v32.182858a13.531429 13.531429 0 0 0 13.531429 13.531428h154.331428v154.331429a13.531429 13.531429 0 0 0 13.604572 13.604571h32.182857a13.531429 13.531429 0 0 0 13.531428-13.531428v-154.331429h154.331429a13.531429 13.531429 0 0 0 13.604571-13.604571v-32.182858a13.531429 13.531429 0 0 0-13.531428-13.531428h-154.331429v-154.331429A13.531429 13.531429 0 0 0 725.577143 512z" p-id="10070"></path></svg>