<svg t="1603184509000" class="icon" viewBox="0 0 1099 1024" version="1.1" xmlns="http://www.w3.org/2000/svg" p-id="7068" width="200" height="200"><path d="M853.204819 1024h-350.072289c-35.855422 0-64.771084-28.915663-64.771084-64.771084v-43.180723h-281.445783c-35.855422 0-64.771084-28.915663-64.771085-64.771085V202.024096c0-35.855422 28.915663-64.771084 64.771085-64.771084h89.445783c9.638554-37.39759 43.180723-64.771084 83.66265-64.771084h194.698796c40.096386 0 74.024096 27.759036 83.66265 64.771084H697.831325c35.855422 0 64.771084 28.915663 64.771085 64.771084v86.746988h194.698795c35.855422 0 64.771084 28.915663 64.771084 64.771085v501.590361l-168.86747 168.86747zM524.722892 115.277108H330.024096c-23.903614 0-43.180723 19.277108-43.180723 43.180723s19.277108 43.180723 43.180723 43.180723h194.698796c23.903614 0 43.180723-19.277108 43.180722-43.180723s-19.277108-43.180723-43.180722-43.180723zM719.421687 223.614458c0-23.903614-19.277108-43.180723-43.180723-43.180723h-67.855422c-9.638554 37.39759-43.180723 64.771084-83.66265 64.771084H330.024096c-40.096386 0-74.024096-27.759036-83.66265-64.771084H178.506024c-23.903614 0-43.180723 19.277108-43.180723 43.180723v605.686747c0 23.903614 19.277108 43.180723 43.180723 43.180723h259.46988V353.156627c0-35.855422 28.915663-64.771084 64.771084-64.771085h216.289157V223.614458z m259.469879 151.518072c0-23.903614-19.277108-43.180723-43.180723-43.180723H524.722892c-23.903614 0-43.180723 19.277108-43.180723 43.180723v562.506024c0 23.903614 19.277108 43.180723 43.180723 43.180723h303.036144v-151.518072H979.277108V375.13253z m-410.987952 173.108434h324.626506v43.180723h-324.626506v-43.180723z m216.289157 172.722891h-216.289157v-43.180722h216.289157V720.963855z" p-id="7069"></path></svg>