<svg t="1603184652717" class="icon" viewBox="0 0 1024 1024" version="1.1" xmlns="http://www.w3.org/2000/svg" p-id="9319" width="200" height="200"><path d="M128 51.2C83.2 51.2 51.2 83.2 51.2 128v768c0 44.8 32 76.8 76.8 76.8h768c44.8 0 76.8-32 76.8-76.8V128c0-44.8-32-76.8-76.8-76.8H128zM128 0h768c70.4 0 128 57.6 128 128v768c0 70.4-57.6 128-128 128H128c-70.4 0-128-57.6-128-128V128C0 57.6 57.6 0 128 0z" p-id="9320"></path><path d="M793.6 256L396.8 582.4 230.4 460.8 192 512l204.8 204.8L832 281.6z" p-id="9321"></path></svg>