<svg t="1603184439182" class="icon" viewBox="0 0 1024 1024" version="1.1" xmlns="http://www.w3.org/2000/svg" p-id="6331" width="200" height="200"><path d="M772.115 685.413h-346.822c-47.886 0-86.705-38.82-86.705-86.707v-346.817c0-47.891 38.82-86.71 86.705-86.71h346.822c47.888 0 86.707 38.818 86.707 86.71v346.817c0 47.887-38.82 86.707-86.707 86.707z" p-id="6332"></path><path d="M381.587 728.459c-47.886 0-86.705-38.82-86.705-86.708v-303.448h-45.074c-47.886 0-86.705 38.818-86.705 86.71v346.817c0 47.888 38.82 86.708 86.705 86.708h346.822c47.888 0 86.707-38.82 86.707-86.708v-43.371h-301.75z" p-id="6333"></path></svg>