<svg class="icon" viewBox="0 0 1024 1024" xmlns="http://www.w3.org/2000/svg" width="128" height="128"><defs><style/></defs><path d="M896 64H128c-35.296 0-64 28.704-64 64v768c0 35.296 28.704 64 64 64h592a32 32 0 100-64H128V128h768v592a32 32 0 1064 0V128c0-35.296-28.704-64-64-64z"/><path d="M791.744 746.496A206.752 206.752 0 00832 624c0-114.688-93.312-208-208-208s-208 93.312-208 208 93.312 208 208 208a206.752 206.752 0 00122.496-40.256l110.88 110.88a31.904 31.904 0 0045.248 0 31.968 31.968 0 000-45.248l-110.88-110.88zM480 624c0-79.392 64.608-144 144-144s144 64.608 144 144-64.608 144-144 144-144-64.608-144-144zm320-360a32 32 0 00-32-32H256a32 32 0 000 64h512a32 32 0 0032-32zM256 422.656a32 32 0 000 64h96a32 32 0 000-64h-96z"/></svg>