<svg class="icon" viewBox="0 0 1024 1024" xmlns="http://www.w3.org/2000/svg" width="200" height="200"><path d="M1009.462 393.547l-317.24 246.325c-9.624 9.624-25.663 0-25.663-12.763V463.916c-249.943 0-346.043 76.784-477.43 297.515 0 0 16.04-505.482 477.43-505.482V105.587c0-12.831 16.04-22.387 25.663-12.831l317.24 246.393c19.18 12.764 19.18 41.566 0 54.398zM336.556 44.774H89.82c-25.663 0-44.91 19.18-44.91 44.774v847.839c0 25.595 19.247 44.842 44.91 44.842h801.086c25.594 0 44.842-19.247 44.842-44.842V758.223c0-12.764 9.624-22.387 22.455-22.387 12.763 0 22.387 6.416 22.387 19.247v179.164c0 47.982-41.634 89.548-89.684 89.548H89.82c-48.118 0-89.753-41.566-89.753-89.548V89.548C.068 41.566 41.703 0 89.821 0h243.527c15.97 0 25.595 9.624 25.595 22.387 0 12.832-9.624 22.387-22.387 22.387z"/></svg>