<svg class="icon" viewBox="0 0 1024 1024" xmlns="http://www.w3.org/2000/svg" width="128" height="128"><path d="M509.888 64.223c-247.24 0-447.7 200.461-447.7 447.701s200.46 447.7 447.7 447.7c247.244 0 447.704-200.46 447.704-447.7S757.132 64.223 509.888 64.223zm235.437 604.001c21.862 21.861 21.862 57.276 0 79.137-10.928 10.929-25.246 16.394-39.568 16.394-14.318 0-28.637-5.465-39.565-16.394L509.887 591.057l-156.3 156.305c-10.928 10.929-25.246 16.394-39.568 16.394-14.318 0-28.637-5.465-39.565-16.394-21.862-21.861-21.862-57.276 0-79.138l156.3-156.3-156.3-156.3c-21.862-21.862-21.862-57.277 0-79.134 21.861-21.861 57.272-21.861 79.133 0l156.3 156.3 156.305-156.3c21.856-21.861 57.272-21.861 79.133 0 21.862 21.857 21.862 57.272 0 79.134l-156.298 156.3 156.3 156.3h-.002z"/></svg>