<svg class="icon" viewBox="0 0 1024 1024" xmlns="http://www.w3.org/2000/svg" width="200" height="200"><path d="M793.6 972.8H230.4c-113.1 0-204.8-91.7-204.8-204.8V256c0-113.1 91.7-204.8 204.8-204.8h563.2c113.1 0 204.8 91.7 204.8 204.8v512c0 113.1-91.7 204.8-204.8 204.8zm153.6-686.08c0-101.786-82.534-184.32-184.32-184.32H261.12c-101.786 0-184.32 82.534-184.32 184.32v450.56c0 101.786 82.534 184.32 184.32 184.32h501.76c101.786 0 184.32-82.534 184.32-184.32V286.72zM384 308.224L691.2 512 384 715.776V308.224z"/></svg>