<svg class="icon" viewBox="0 0 1024 1024" xmlns="http://www.w3.org/2000/svg" width="200" height="200"><path d="M512 896l153.6-204.8c-42.667-32-96-51.2-153.6-51.2-57.6 0-110.933 19.2-153.6 51.2L512 896m0-768c-172.8 0-332.373 57.173-460.8 153.6L128 384c106.667-80.213 239.787-128 384-128s277.333 47.787 384 128l76.8-102.4C844.373 185.173 684.8 128 512 128m0 256c-115.2 0-221.44 37.973-307.2 102.4l76.8 102.4c64-48.213 143.787-76.8 230.4-76.8s166.4 28.587 230.4 76.8l76.8-102.4C733.44 421.973 627.2 384 512 384z"/></svg>